<svg xmlns="http://www.w3.org/2000/svg" viewBox="0 0 2246 1151" width="600" fill="#000000">
  <g>
    <path d="M201 -158H17V-141C38 -141 49 -129 49 -104V428C49 453 38 466 17 466V483H134C153 483 168 477 181 464C193 451 200 435 201 418ZM266 490C291 490 314 484 335 473C356 462 375 445 390 423C405 401 412 375 412 346V155C412 130 407 108 397 89C386 70 374 54 359 42C344 30 329 22 313 17C296 12 281 9 266 9C249 9 233 12 217 19V480C233 487 249 490 266 490Z" transform="translate(0,903) scale(1,-1)"/>
<path d="M442 107 366 31C359 24 351 19 341 15C330 11 320 9 309 9C288 9 272 17 259 32C246 47 239 66 239 87V493C286 493 323 478 350 449C376 419 389 376 389 319V136C389 129 391 123 396 118C401 112 406 109 413 109C420 109 426 111 432 116ZM26 175C26 208 35 237 52 263C69 288 90 306 115 317C139 327 162 332 183 333H220V11L190 9C162 9 135 16 109 31C82 46 62 66 48 93C33 120 26 147 26 175ZM31 417 42 428C47 423 52 421 58 421C65 421 71 424 78 431C103 457 126 474 146 482C165 489 190 493 220 493V351H97Z" transform="translate(471,903) scale(1,-1)"/>
<path d="M198 17H16V33C37 33 47 46 47 71V428C47 453 37 466 16 466V483H131C150 483 166 476 179 463C192 449 198 433 198 416ZM214 451C247 478 285 491 327 491V308H310C310 331 296 342 267 342H215Z" transform="translate(926,903) scale(1,-1)"/>
<path d="M256 110 176 31C170 24 162 19 152 15C141 11 131 9 121 9C100 9 81 17 66 33C50 48 42 66 42 87V615C42 645 31 660 10 660V677H199V142C199 135 202 129 207 124C212 119 218 116 225 116C232 116 238 118 243 123Z" transform="translate(1281,903) scale(1,-1)"/>
<path d="M90 333H108C78 319 53.83332824707031 297.8333282470703 35.5 269.5C17.166671752929688 241.1666717529297 8.0 209.6666717529297 8.0 175.0C8.0 144.3333282470703 16.0 114.16667175292969 32.0 84.5C48.0 54.83332824707031 70.66667175292969 31.833328247070312 100.0 15.5C129.3333282470703 -0.8333282470703125 159.3333282470703 -9.0 190.0 -9.0C196.0 -9.0 212.3333282470703 -7.6666717529296875 239.0 -5.0V27.0C245.6666717529297 17.0 255.1666717529297 8.5 267.5 1.5C279.8333282470703 -5.5 293.6666717529297 -9.0 309.0 -9.0C321.6666717529297 -9.666671752929688 334.0 -7.5 346.0 -2.5C358.0 2.5 368.6666717529297 9.666671752929688 378.0 19.0L467.0 107.0L432.0 142.0C422.6666717529297 132.6666717529297 416.3333282470703 128.0 413.0 128.0C411.6666717529297 128.0 410.3333282470703 128.6666717529297 409.0 130.0C407.6666717529297 131.3333282470703 407.0 133.3333282470703 407.0 136.0V319.0C407.0 382.3333282470703 392.0 430.0 362.0 462.0C332.0 494.0 287.6666717529297 510.0 229.0 510.0C199.0 510.0 175.3333282470703 508.1666717529297 158.0 504.5C140.6666717529297 500.8333282470703 124.33332824707031 493.3333282470703 109.0 482.0C93.66667175292969 470.6666717529297 79.0 457.6666717529297 65.0 443.0C63.0 441.0 60.66667175292969 440.0 58.0 440.0C54.66667175292969 442.0 49.33332824707031 446.3333282470703 42.0 453.0L6.0 417.0ZM442.0 107.0 366.0 31.0C359.3333282470703 24.333328247070312 350.8333282470703 19.0 340.5 15.0C330.1666717529297 11.0 319.6666717529297 9.0 309.0 9.0C288.3333282470703 9.0 271.5 16.666671752929688 258.5 32.0C245.5 47.33332824707031 239.0 65.66667175292969 239.0 87.0V493.0C286.3333282470703 493.0 323.1666717529297 478.1666717529297 349.5 448.5C375.8333282470703 418.8333282470703 389.0 375.6666717529297 389.0 319.0V136.0C389.0 129.3333282470703 391.3333282470703 123.16667175292969 396.0 117.5C400.6666717529297 111.83332824707031 406.3333282470703 109.0 413.0 109.0C419.6666717529297 109.0 426.0 111.33332824707031 432.0 116.0ZM26.0 175.0C26.0 207.6666717529297 34.66667175292969 236.8333282470703 52.0 262.5C69.33332824707031 288.1666717529297 90.16667175292969 306.1666717529297 114.5 316.5C138.8333282470703 326.8333282470703 161.6666717529297 332.3333282470703 183.0 333.0H220.0V83.0V11.0L190.0 9.0C162.0 9.0 134.8333282470703 16.333328247070312 108.5 31.0C82.16667175292969 45.66667175292969 61.83332824707031 66.33332824707031 47.5 93.0C33.16667175292969 119.66667175292969 26.0 147.0 26.0 175.0ZM31.0 417.0 42.0 428.0C46.66667175292969 423.3333282470703 52.0 421.0 58.0 421.0C64.66667175292969 421.0 71.33332824707031 424.3333282470703 78.0 431.0C103.33332824707031 457.0 125.83332824707031 473.8333282470703 145.5 481.5C165.1666717529297 489.1666717529297 190.0 493.0 220.0 493.0V351.0H97.0Z" transform="translate(1533,903) scale(1,-1)"/>
<path d="M246 103 174 30C158.6666717529297 16 141.0 9 121.0 9C101.0 9 83.83332824707031 16.333328247070312 69.5 31.0C55.16667175292969 45.66667175292969 48.0 62.66667175292969 48.0 82.0V429.0C48.0 455.0 38.33332824707031 468.0 19.0 468.0V483.0H195.0V133.0C195.0 127.0 197.1666717529297 121.5 201.5 116.5C205.8333282470703 111.5 211.3333282470703 109.0 218.0 109.0C224.6666717529297 109.0 230.0 111.0 234.0 115.0ZM64.0 594.0C64.0 608.6666717529297 69.66667175292969 621.6666717529297 81.0 633.0C92.33332824707031 644.3333282470703 105.66667175292969 650.0 121.0 650.0C136.3333282470703 650.0 149.6666717529297 644.3333282470703 161.0 633.0C172.3333282470703 621.6666717529297 178.0 608.6666717529297 178.0 594.0C178.0 578.0 172.5 564.5 161.5 553.5C150.5 542.5 137.0 537.0 121.0 537.0C105.66667175292969 537.0 92.33332824707031 542.6666717529297 81.0 554.0C69.66667175292969 565.3333282470703 64.0 578.6666717529297 64.0 594.0ZM48.0 594.0C48.0 574.0 55.16667175292969 556.6666717529297 69.5 542.0C83.83332824707031 527.3333282470703 101.0 520.0 121.0 520.0C141.0 520.0 158.3333282470703 527.3333282470703 173.0 542.0C187.6666717529297 556.6666717529297 195.0 574.0 195.0 594.0C195.0 613.3333282470703 187.6666717529297 630.3333282470703 173.0 645.0C158.3333282470703 659.6666717529297 141.0 667.0 121.0 667.0C101.66667175292969 667.0 84.66667175292969 659.6666717529297 70.0 645.0C55.33332824707031 630.3333282470703 48.0 613.3333282470703 48.0 594.0ZM234.0 139.0C228.6666717529297 133.0 223.3333282470703 128.6666717529297 218.0 126.0C214.0 126.0 212.0 128.3333282470703 212.0 133.0V500.0H2.0V451.0C10.666671752929688 451.0 17.666671752929688 449.0 23.0 445.0C28.333328247070312 441.0 31.0 435.6666717529297 31.0 429.0V82.0C31.0 64.66667175292969 36.16667175292969 48.5 46.5 33.5C56.83332824707031 18.5 69.0 8.0 83.0 2.0C97.0 -4.0 109.66667175292969 -7.0 121.0 -7.0C145.6666717529297 -7.0 167.0 1.3333282470703125 185.0 18.0L270.0 103.0Z" transform="translate(1988,903) scale(1,-1)"/>
  </g>
</svg>
